<svg width="40" height="40" fill="none" xmlns="http://www.w3.org/2000/svg"><g clip-path="url(#clip0)" fill-rule="evenodd" clip-rule="evenodd"><path d="M31.3 40H8.7A8.6 8.6 0 010 31.3V8.7A8.6 8.6 0 018.7 0h22.6A8.6 8.6 0 0140 8.7v22.6a8.6 8.6 0 01-8.7 8.7z" fill="url(#paint0_linear)"/><path d="M29.3 24.2v1.1c0 .8 0 1.5-.2 2.3a2.8 2.8 0 01-1.2 1.8c-.7.5-1.5.8-2.3.9H25a3.2 3.2 0 01-2.7-1.1 3 3 0 01-.4-3 3 3 0 012.1-1.9l2.5-.7a1.4 1.4 0 001.1-1.4V13.4a.5.5 0 00-.2-.5.6.6 0 00-.4 0L16.3 15a.8.8 0 00-.7.8V28c0 .8 0 1.5-.2 2.3a2.8 2.8 0 01-1.2 1.8c-.7.5-1.5.8-2.3.9h-.6a3.2 3.2 0 01-2.6-1.1 3 3 0 01-.5-3 3 3 0 012.2-2l2.5-.6a1.4 1.4 0 001-1.4V10a1.2 1.2 0 011-1.2l13.4-2.5c.3 0 .5 0 .7.2a.8.8 0 01.3.6v17z" fill="#BB58BB"/><path d="M29.3 24.2v1.1c0 .8 0 1.5-.2 2.3a2.8 2.8 0 01-1.2 1.8c-.7.5-1.5.8-2.3.9H25a3.2 3.2 0 01-2.7-1.1 3 3 0 01-.4-3 3 3 0 012.1-1.9l2.5-.7a1.4 1.4 0 001.1-1.4V13.4a.5.5 0 00-.2-.5.6.6 0 00-.4 0L16.3 15a.8.8 0 00-.7.8V28c0 .8 0 1.5-.2 2.3a2.8 2.8 0 01-1.2 1.8c-.7.5-1.5.8-2.3.9h-.6a3.2 3.2 0 01-2.6-1.1 3 3 0 01-.5-3 3 3 0 012.2-2l2.5-.6a1.4 1.4 0 001-1.4V10a1.2 1.2 0 011-1.2l13.4-2.5c.3 0 .5 0 .7.2a.8.8 0 01.3.6v17z" fill="url(#paint1_radial)"/><path d="M29.3 24.2v1.1c0 .8 0 1.5-.2 2.3a2.8 2.8 0 01-1.2 1.8c-.7.5-1.5.8-2.3.9H25a3.2 3.2 0 01-2.7-1.1 3 3 0 01-.4-3 3 3 0 012.1-1.9l2.5-.7a1.4 1.4 0 001.1-1.4V13.4a.5.5 0 00-.2-.5.6.6 0 00-.4 0L16.3 15a.8.8 0 00-.7.8V28c0 .8 0 1.5-.2 2.3a2.8 2.8 0 01-1.2 1.8c-.7.5-1.5.8-2.3.9h-.6a3.2 3.2 0 01-2.6-1.1 3 3 0 01-.5-3 3 3 0 012.2-2l2.5-.6a1.4 1.4 0 001-1.4V10a1.2 1.2 0 011-1.2l13.4-2.5c.3 0 .5 0 .7.2a.8.8 0 01.3.6v17z" fill="url(#paint2_radial)"/><path d="M29.3 24.2v1.1c0 .8 0 1.5-.2 2.3a2.8 2.8 0 01-1.2 1.8c-.7.5-1.5.8-2.3.9H25a3.2 3.2 0 01-2.7-1.1 3 3 0 01-.4-3 3 3 0 012.1-1.9l2.5-.7a1.4 1.4 0 001.1-1.4V13.4a.5.5 0 00-.2-.5.6.6 0 00-.4 0L16.3 15a.8.8 0 00-.7.8V28c0 .8 0 1.5-.2 2.3a2.8 2.8 0 01-1.2 1.8c-.7.5-1.5.8-2.3.9h-.6a3.2 3.2 0 01-2.6-1.1 3 3 0 01-.5-3 3 3 0 012.2-2l2.5-.6a1.4 1.4 0 001-1.4V10a1.2 1.2 0 011-1.2l13.4-2.5c.3 0 .5 0 .7.2a.8.8 0 01.3.6v17z" fill="url(#paint3_linear)"/><path d="M29.3 24.2v1.1c0 .8 0 1.5-.2 2.3a2.8 2.8 0 01-1.2 1.8c-.7.5-1.5.8-2.3.9H25a3.2 3.2 0 01-2.7-1.1 3 3 0 01-.4-3 3 3 0 012.1-1.9l2.5-.7a1.4 1.4 0 001.1-1.4V13.4a.5.5 0 00-.2-.5.6.6 0 00-.4 0L16.3 15a.8.8 0 00-.7.8V28c0 .8 0 1.5-.2 2.3a2.8 2.8 0 01-1.2 1.8c-.7.5-1.5.8-2.3.9h-.6a3.2 3.2 0 01-2.6-1.1 3 3 0 01-.5-3 3 3 0 012.2-2l2.5-.6a1.4 1.4 0 001-1.4V10a1.2 1.2 0 011-1.2l13.4-2.5c.3 0 .5 0 .7.2a.8.8 0 01.3.6v17z" fill="#fff"/></g><defs><radialGradient id="paint1_radial" cx="0" cy="0" r="1" gradientUnits="userSpaceOnUse" gradientTransform="rotate(90 -8.8 21.3) scale(16.871)"><stop stop-color="#7470F9"/><stop offset="1" stop-color="#7A70FE" stop-opacity="0"/></radialGradient><radialGradient id="paint2_radial" cx="0" cy="0" r="1" gradientUnits="userSpaceOnUse" gradientTransform="rotate(-105.5 23 3.3) scale(13.618)"><stop stop-color="#4CA3F8"/><stop offset=".4" stop-color="#4CA4F7"/><stop offset="1" stop-color="#4AA2F9" stop-opacity="0"/></radialGradient><linearGradient id="paint0_linear" x1="20" y1="40" x2="20" y2="0" gradientUnits="userSpaceOnUse"><stop stop-color="#FD355A"/><stop offset="1" stop-color="#FD5163"/></linearGradient><linearGradient id="paint3_linear" x1="16.1" y1="11.5" x2="22" y2="22.1" gradientUnits="userSpaceOnUse"><stop stop-color="#FF6380"/><stop offset="1" stop-color="#F65E79" stop-opacity="0"/></linearGradient><clipPath id="clip0"><path fill="#fff" d="M0 0h40v40H0z"/></clipPath></defs></svg>