<svg width="98" height="55" xmlns="http://www.w3.org/2000/svg" fill="none">

 <g>
  <title>Layer 1</title>
  <path stroke="null" id="svg_3" fill="#0c43a0" d="m97.55128,27.82051c0,14.62137 -11.7098,26.47436 -26.15453,26.47436l-44.9858,0c-14.44473,0 -26.15453,-11.85299 -26.15453,-26.47436l0,0c0,-14.62137 11.7098,-26.47436 26.15453,-26.47436l44.9858,0c14.44473,0 26.15453,11.85299 26.15453,26.47436l0,0z"/>
  <path id="svg_1" fill="#EBEBEB" d="m95.30769,27.94872c0,13.8071 -11.1929,25 -25,25l-43,0c-13.8071,0 -25,-11.1929 -25,-25l0,0c0,-13.8071 11.1929,-25 25,-25l43,0c13.8071,0 25,11.1929 25,25l0,0z"/>
  <ellipse transform="rotate(-180 28.3077 27.4487)" id="svg_2" fill="#252137" ry="20.5" rx="20" cy="27.44872" cx="28.30769"/>
 </g>
</svg>