<svg width="97" height="54" xmlns="http://www.w3.org/2000/svg" fill="none">

 <g>
  <title>Layer 1</title>
  <path stroke="null" id="svg_3" fill="#0c43a0" d="m96.74516,27.0473c0,14.66268 -11.63127,26.54917 -25.97914,26.54917l-44.68411,0c-14.34796,0 -25.97918,-11.88649 -25.97918,-26.54917c0,-14.66268 11.63121,-26.54919 25.97918,-26.54919l44.68411,0.00001c14.34786,0 25.97914,11.8865 25.97914,26.54918z"/>
  <path id="svg_1" fill="#3E81FB" d="m94.89087,27.17156c0,13.8071 -11.1929,25 -25,25l-43,0c-13.8072,0 -25.00004,-11.1929 -25.00004,-25c0,-13.8071 11.19284,-25.00002 25.00004,-25.00002l43,0.00001c13.8071,0 25,11.19291 25,25.00001z"/>
  <ellipse transform="rotate(-180 67.8909 26.6716)" id="svg_2" fill="#252137" ry="20.5" rx="20" cy="26.67156" cx="67.89087"/>
 </g>
</svg>