<svg width="40" height="41" viewBox="0 0 40 41" fill="none" xmlns="http://www.w3.org/2000/svg">
<g clip-path="url(#clip0)">
<path d="M24.3231 35.9161L24.083 35.5433L23.091 34.046C22.734 33.9803 22.3897 33.8925 22.0548 33.7892C21.6473 33.6733 21.2555 33.5198 20.8827 33.3412C19.1957 32.5362 17.8373 31.2018 16.7 29.5761C15.1583 27.3615 13.7177 25.0811 12.2328 22.8414C10.6753 20.4733 9.10522 18.1178 7.56669 15.7465C7.30132 15.3362 6.86535 14.7473 6.96012 14.03C7.02647 13.5163 7.29816 13.2093 7.69306 12.9399C8.05005 12.6956 8.79878 12.7488 9.22843 12.965C9.69599 13.1968 10.053 13.7199 10.3657 14.1803C11.0987 15.2548 11.8095 16.3574 12.5298 17.4318C12.8805 17.9706 13.2343 18.4937 13.5945 19.0199C13.9767 19.5837 14.7033 21.1343 15.5721 20.5297C16.3714 19.9659 15.3194 18.7098 14.9877 18.2117C14.6338 17.6855 14.2863 17.1499 13.9388 16.6236C12.3402 14.1271 10.7038 11.6682 9.16841 9.13405C8.47338 7.99385 8.70084 7.25148 9.61386 6.76595C10.4826 6.29296 11.1935 6.57488 11.9138 7.66182C13.7872 10.4904 15.6543 13.3221 17.5245 16.1506C17.7867 16.5484 17.9447 16.8805 18.4375 17.0465C18.804 17.1624 19.161 17.0966 19.3 16.727C19.5338 16.1005 19.3442 15.781 19.0156 15.2798C16.8168 11.9375 14.6117 8.60781 12.4192 5.27806C11.7021 4.17546 11.9327 3.16369 12.9847 2.6907C13.7714 2.34614 14.5138 2.64058 15.1583 3.61163C17.4013 6.99149 19.638 10.3839 21.8653 13.7794C22.2286 14.3307 22.6708 14.7912 23.3185 14.3432C23.9377 13.9078 23.587 13.3565 23.2585 12.8585C21.5304 10.2586 19.8054 7.64616 18.09 5.03374C17.8625 4.68917 17.6288 4.31642 17.5087 3.9186C17.2339 3.03526 17.8467 2.12687 18.7661 1.96085C19.7075 1.79483 20.1688 2.35866 20.6016 3.02273C23.527 7.46448 26.4524 11.9094 29.4189 16.3386C29.6938 16.7489 30.2687 17.2219 30.6889 17.2094C31.4756 17.1843 31.3903 16.3762 31.4408 15.7998C31.564 14.3777 31.624 12.9556 31.7725 11.5366C31.8862 10.4465 32.575 9.80752 33.4974 9.83257C34.3283 9.83257 35.036 10.4998 35.1055 11.5617C35.3519 15.4302 35.6204 19.2956 35.731 23.1641C35.75 23.8438 35.7026 24.5079 35.5888 25.1625C35.532 25.4821 35.453 25.8141 35.3614 26.1367C35.2761 26.4186 35.1718 26.7131 35.0549 26.995L35.8226 28.1477L36.1196 28.6082L38.2647 31.8471L26.6325 39.4024L24.3231 35.9067V35.9161ZM18.0079 33.6764C17.6793 33.7923 17.3381 33.88 16.9811 33.9583L16.046 35.5089L15.8217 35.8816L13.6513 39.4682L1.73164 32.3733L3.74721 29.0436L4.02522 28.5831L4.74868 27.3928C4.61915 27.1109 4.50858 26.829 4.41065 26.5471C4.30639 26.2276 4.21477 25.9081 4.14211 25.5729C4.00311 24.9339 3.92729 24.2792 3.92097 23.5869C3.8799 19.7184 3.99363 15.8405 4.09157 11.972C4.11684 10.9226 4.79923 10.2179 5.62694 10.1803C6.36303 10.1427 6.96328 10.5248 7.25709 11.2422C7.04542 11.3455 6.83691 11.499 6.5905 11.7809C5.38052 13.1373 5.24783 15.1357 6.22087 16.6581C9.05468 21.128 11.9359 25.5572 14.8802 29.9489C15.4521 30.8071 16.0934 31.6122 16.82 32.3545C17.2749 32.8025 17.7393 33.2253 18.2101 33.5981C18.1437 33.6232 18.0774 33.6482 18.0079 33.6764ZM23.7102 3.2514C24.3168 2.25216 25.0466 1.93266 25.8458 2.25216C26.9137 2.68757 27.1885 3.6868 26.5124 4.81447C26.0923 5.50673 25.6689 6.19586 25.2456 6.90065C24.5948 5.91394 23.944 4.92723 23.2932 3.94366C23.4322 3.71186 23.5712 3.4832 23.7102 3.2514ZM29.9402 12.4074C29.9117 12.7802 29.8833 13.1874 29.8454 13.6635C29.8422 13.6886 29.8012 13.7011 29.7854 13.676C29.5863 13.4066 29.4379 13.2156 29.3115 13.037C29.4947 12.7802 29.7001 12.5515 29.9433 12.4105L29.9402 12.4074ZM27.1127 7.17003C27.7919 6.0549 28.4901 5.74792 29.3747 6.18333C30.3066 6.64379 30.5625 7.37364 29.9149 8.53889C29.3747 9.5256 28.8155 10.4841 28.25 11.4458C27.6024 10.4591 26.9516 9.48801 26.3039 8.5013C26.5725 8.05337 26.841 7.61797 27.1095 7.17003H27.1127ZM36.8241 27.042C37.6012 24.89 37.5886 22.6128 37.4749 20.37C37.3169 17.3597 37.0642 14.3526 36.7862 11.3549C36.6093 9.43476 35.2066 8.14108 33.4722 8.14108C32.8435 8.14108 32.2496 8.31962 31.7378 8.63913C32.3443 6.51223 31.5387 5.18096 28.6512 4.15666C28.6354 4.15666 28.6291 4.14413 28.6291 4.1316C28.686 2.5936 28.31 1.66014 26.9389 0.880172C25.5394 0.0876742 24.1746 -0.0156951 22.9331 1.57243C22.9267 1.58496 22.595 1.99531 22.5919 1.98278C22.4023 1.11197 21.6852 0.573196 21.1007 0.319472C20.1214 -0.103402 19.221 -0.103402 18.4186 0.306942C18.169 0.36959 17.9131 0.46043 17.654 0.588858C17.0822 0.858245 16.384 1.43461 16.2292 2.30541C16.2261 2.31794 15.8817 1.92013 15.8722 1.9076C14.5675 0.36959 13.2122 0.52621 11.8411 1.36883C10.4984 2.20204 10.1604 3.16056 10.2773 4.68604C10.2773 4.69857 10.271 4.7111 10.2583 4.72363C7.63303 5.77298 6.78637 7.00402 7.21918 8.84587C6.72318 8.58901 6.17032 8.44805 5.58903 8.47311C3.85778 8.53576 2.5088 9.89522 2.40771 11.8154C2.24975 14.8256 2.1139 17.8453 2.07599 20.8555C2.04756 23.0952 2.12654 25.3755 2.989 27.4868L0.00671387 32.4172L14.4285 40.9968L17.7109 35.5809C18.4533 35.3898 19.1768 35.0829 19.8813 34.6976C20.7153 35.158 21.5683 35.4901 22.4402 35.6843L25.9311 40.9718L40.0054 31.8408L36.8304 27.0389L36.8241 27.042Z" fill="#34302E"/>
<path d="M29.8268 22.9196C29.7036 23.2923 29.5014 23.6244 29.2329 23.9063L24.4404 28.9369L19.809 24.0723L19.7742 24.0472C19.6731 23.9564 19.5784 23.8562 19.4962 23.7528C19.3351 23.5617 19.1961 23.3049 19.0855 23.0355C19.0666 22.9853 19.0445 22.9321 19.0223 22.882C18.9307 22.6001 18.8865 22.3056 18.8865 22.0112C18.8865 21.7042 18.9402 21.3972 19.0413 21.1028C19.3951 20.066 20.3081 19.3862 21.3128 19.3862C22.2542 19.3862 23.1167 19.9751 23.5179 20.9086C23.6727 21.2657 24.0328 21.4975 24.4309 21.4975C24.829 21.4975 25.186 21.2657 25.3408 20.9086C25.742 19.9751 26.6044 19.3862 27.5459 19.3862C28.8854 19.3862 29.9753 20.564 29.9753 22.0112C29.9753 22.3307 29.9248 22.6377 29.8237 22.9196H29.8268ZM27.549 18.1301C26.279 18.1301 25.107 18.8224 24.4341 19.9219C23.7612 18.8193 22.5859 18.1301 21.3191 18.1301C19.7742 18.1301 18.381 19.1544 17.8503 20.6924C17.7018 21.1278 17.626 21.5632 17.626 22.0112C17.626 22.4591 17.6955 22.882 17.8313 23.2923C17.8471 23.3424 17.8629 23.3832 17.8819 23.4208L18.4537 23.1514L17.8819 23.4208L18.4537 23.1514L17.8819 23.4208C17.8882 23.4333 17.8977 23.4458 17.9071 23.4709C18.0651 23.8812 18.2705 24.2383 18.5137 24.5453C18.6338 24.6862 18.7633 24.8272 18.9055 24.9556L24.4404 30.7694L30.168 24.752C30.5471 24.3542 30.8409 23.8562 31.0242 23.3299C31.1663 22.907 31.2421 22.4591 31.2421 22.0112C31.2421 19.8717 29.5867 18.1301 27.549 18.1301Z" fill="#34302E"/>
</g>
<defs>
<clipPath id="clip0">
<rect width="40" height="41" fill="white"/>
</clipPath>
</defs>
</svg>
