<svg width="50" height="50" viewBox="0 0 50 50" fill="none" xmlns="http://www.w3.org/2000/svg">
<path d="M25 50C38.8071 50 50 38.8071 50 25C50 11.1929 38.8071 0 25 0C11.1929 0 0 11.1929 0 25C0 38.8071 11.1929 50 25 50Z" fill="url(#paint0_radial)"/>
<path d="M19.7507 13.802C16.1266 13.802 13.1784 16.7501 13.1784 20.3741V29.6253C13.1784 33.2492 16.1266 36.1974 19.7507 36.1974H30.2492C33.8726 36.1974 36.8211 33.2492 36.8211 29.6253V20.3741C36.8211 16.7499 33.8726 13.802 30.2492 13.802H19.7507ZM30.2492 38.0758H19.7507C15.0916 38.0758 11.3005 34.2848 11.3005 29.6255V20.3743C11.3005 15.7147 15.0914 11.9241 19.7507 11.9241H30.2492C34.908 11.9241 38.699 15.7147 38.699 20.3743V29.6255C38.699 34.2848 34.908 38.0758 30.2492 38.0758Z" fill="#FEFEFE"/>
<path d="M24.9999 19.3552C21.8878 19.3552 19.3559 21.8875 19.3559 24.9997C19.3559 28.1119 21.8878 30.6438 24.9999 30.6438C28.1117 30.6438 30.644 28.1119 30.644 24.9997C30.644 21.8875 28.1117 19.3552 24.9999 19.3552ZM24.9999 32.5217C20.852 32.5217 17.4784 29.1473 17.4784 24.9997C17.4784 20.8517 20.852 17.4781 24.9999 17.4781C29.1475 17.4781 32.5215 20.8517 32.5215 24.9997C32.5215 29.1473 29.1475 32.5217 24.9999 32.5217Z" fill="#FEFEFE"/>
<path d="M33.9674 17.7092C33.9674 18.5707 33.2689 19.2696 32.407 19.2696C31.5449 19.2696 30.8456 18.5707 30.8456 17.7092C30.8456 16.8471 31.5449 16.1482 32.407 16.1482C33.2689 16.1482 33.9674 16.8471 33.9674 17.7092Z" fill="#FEFEFE"/>
<defs>
<radialGradient id="paint0_radial" cx="0" cy="0" r="1" gradientUnits="userSpaceOnUse" gradientTransform="translate(0.999418 46.0064) rotate(-44.1913) scale(71.1041)">
<stop stop-color="#FAEA1C"/>
<stop offset="0.45098" stop-color="#E62874"/>
<stop offset="1" stop-color="#45519D"/>
</radialGradient>
</defs>
</svg>
