<svg width="169" height="169" viewBox="0 0 169 169" fill="none" xmlns="http://www.w3.org/2000/svg">
<path d="M84.5 169C131.168 169 169 131.168 169 84.5C169 37.8319 131.168 0 84.5 0C37.8319 0 0 37.8319 0 84.5C0 131.168 37.8319 169 84.5 169Z" fill="url(#paint0_radial)"/>
<path d="M66.7575 46.6507C54.5078 46.6507 44.5431 56.6154 44.5431 68.8644V100.133C44.5431 112.382 54.5078 122.347 66.7575 122.347H102.243C114.489 122.347 124.456 112.382 124.456 100.133V68.8644C124.456 56.6147 114.489 46.6507 102.243 46.6507H66.7575ZM102.243 128.696H66.7575C51.0096 128.696 38.1959 115.883 38.1959 100.134V68.8651C38.1959 53.1158 51.0089 40.3035 66.7575 40.3035H102.243C117.989 40.3035 130.803 53.1158 130.803 68.8651V100.134C130.803 115.883 117.989 128.696 102.243 128.696Z" fill="#FEFEFE"/>
<path d="M84.5 65.4208C73.9808 65.4208 65.423 73.98 65.423 84.4991C65.423 95.0183 73.9808 103.576 84.5 103.576C95.0178 103.576 103.577 95.0183 103.577 84.4991C103.577 73.98 95.0178 65.4208 84.5 65.4208ZM84.5 109.923C70.4799 109.923 59.0771 98.5179 59.0771 84.4991C59.0771 70.479 70.4799 59.0763 84.5 59.0763C98.5188 59.0763 109.923 70.479 109.923 84.4991C109.923 98.5179 98.5188 109.923 84.5 109.923Z" fill="#FEFEFE"/>
<path d="M114.81 59.8571C114.81 62.7691 112.449 65.1312 109.536 65.1312C106.622 65.1312 104.258 62.7691 104.258 59.8571C104.258 56.9431 106.622 54.5809 109.536 54.5809C112.449 54.5809 114.81 56.9431 114.81 59.8571Z" fill="#FEFEFE"/>
<defs>
<radialGradient id="paint0_radial" cx="0" cy="0" r="1" gradientUnits="userSpaceOnUse" gradientTransform="translate(3.37803 155.502) rotate(-44.1913) scale(240.332)">
<stop stop-color="#FAEA1C"/>
<stop offset="0.45098" stop-color="#E62874"/>
<stop offset="1" stop-color="#45519D"/>
</radialGradient>
</defs>
</svg>
