<svg width="75" height="54" viewBox="0 0 75 54" fill="none" xmlns="http://www.w3.org/2000/svg">
<g clip-path="url(#clip0)">
<path fill-rule="evenodd" clip-rule="evenodd" d="M7.10267 40.8403C7.39063 40.4573 7.2936 39.8305 7.30375 39.3566C8.62576 39.2969 8.65319 39.7832 9.06328 38.547L11.1733 33.088C11.8202 31.6696 13.9954 27.6532 15.3025 27.1962C15.7555 27.6426 15.9902 28.0995 16.393 28.5499C17.3642 29.6358 19.6444 31.261 21.0175 31.2457C21.6503 30.5726 23.5074 27.4214 23.8125 26.3731C25.2839 26.9552 27.3624 30.5441 28.0949 32.1716C28.38 32.8049 28.688 33.9807 29.1434 34.3752C30.1171 34.1978 32.1812 32.3898 33.2142 32.0852C33.6681 32.4933 34.2329 33.6779 34.4857 34.4465C35.2698 36.8296 34.9472 39.6402 33.5923 41.7538C32.8212 42.9566 33.1515 42.6253 33.3155 42.7741C33.7356 43.1552 35.4361 42.772 36.1008 43.1245C35.912 43.6855 34.9499 44.5622 34.4964 45.0732C31.1947 48.7941 28.6572 50.7586 23.361 51.5408C22.4212 51.6795 17.8419 51.744 16.8892 51.0706C18.226 50.924 19.2449 50.4894 20.0933 49.7919L21.8158 47.2407L21.3883 46.901C20.5881 48.5861 19.354 49.931 17.9626 50.3459C12.3543 52.0181 4.17883 45.3013 4.04663 44.2035C4.20239 44.1303 4.30143 44.1188 4.43205 44.0536C4.71373 43.913 4.52556 44.0529 4.72328 43.8664C5.72623 43.7789 7.23909 42.1511 7.10255 40.8402L7.10267 40.8403ZM13.921 32.1509C11.0824 33.2495 12.6619 38.8673 15.4439 37.715C18.04 36.6399 16.9859 30.9647 13.921 32.1509ZM3.18982 44.0095C3.94001 45.4897 6.72582 47.4292 8.15338 48.3512C10.0648 49.586 12.2674 50.5312 14.6939 51.1897C17.1055 51.8442 20.3877 52.299 23.1673 52.0064C27.3974 51.5611 29.4568 49.8865 30.229 49.7073C31.0627 50.9971 30.3889 51.4179 33.2041 52.9802C34.6758 53.7969 36.3292 54.0342 38.3718 53.9961C40.2475 53.9611 41.9029 53.4769 43.1209 52.5679C44.8513 51.2765 44.7507 50.3369 44.1768 48.209L48.3954 46.419C48.954 46.7808 50.0073 47.9903 50.4725 48.4934C50.9294 48.9877 52.1576 50.3485 52.6186 50.5544C53.6658 50.3533 56.0854 48.5178 57.1997 48.1024C58.202 47.7286 58.7688 48.6067 59.6198 48.9869C62.3705 50.2155 66.0044 49.9415 68.0544 48.3586C69.7132 47.0778 69.8305 45.2133 68.6546 43.5291C69.0376 42.6548 69.7085 42.3834 70.4085 40.1547C70.8773 38.6618 70.9377 37.2719 70.8914 35.5074C72.3248 35.8925 73.9887 38.1265 74.925 37.7902C75.2296 36.023 74.5486 33.4217 73.916 32.2037C72.6637 29.7928 71.4586 29.1663 70.9166 28.2877L73.4772 28.3291C73.6445 26.6612 72.008 22.5699 71.4114 21.3661C66.7408 11.9417 58.6174 9.22316 57.4779 8.19227C57.9334 7.7406 58.9111 7.6327 59.4761 7.15443C59.5041 7.13065 59.5405 7.08938 59.5631 7.06882C59.5862 7.04787 59.6241 7.01165 59.6489 6.97838C59.5092 6.46708 59.7253 6.76012 59.2106 6.35738C59.0081 6.19899 58.8495 6.1164 58.6483 5.97425C52.4796 1.61715 44.9182 0.418729 37.4449 1.70292C36.9027 1.7961 34.5335 2.41711 34.2805 2.25778L35.7264 0.978765C36.1485 0.534196 36.0634 0.782081 36.149 0.234679L35.9106 0.118269C35.2586 -0.0821811 34.2964 0.0109621 33.6397 0.11568C26.3079 1.28527 20.0451 10.1928 12.4192 9.98372C12.3464 11.146 12.6052 16.3088 12.2512 16.762C11.9807 17.0428 7.44096 17.5489 6.39317 17.7058C5.68975 17.8112 5.71533 17.9414 5.60402 18.038C6.0297 18.8882 10.0476 20.2733 10.7235 21.1401C10.3609 21.6965 9.35089 22.5016 8.80718 23.0434C8.06898 23.7789 7.07768 24.4344 6.97995 25.0515C7.66564 25.5537 13.5303 26.39 14.3793 26.775C14.5797 26.8659 14.5392 26.8501 14.6482 26.9397C13.094 28.9337 12.4728 29.0762 10.9664 32.3376C10.2427 33.9044 8.80651 38.1541 8.38209 38.8792L7.08787 38.7915C7.16401 36.835 3.27263 33.5351 0.806088 37.0843C0.000472117 38.2434 -0.265422 39.8013 0.303668 41.447C0.676535 42.5254 1.96227 44.0897 3.18978 44.0095H3.18982ZM12.9146 10.5486C12.5087 11.7053 12.9668 15.5359 12.7839 17.1603L6.73809 18.1388C6.86804 18.5229 6.71086 18.3612 7.21509 18.6607C8.01842 19.1378 11.1065 20.5137 11.3732 21.1401L7.64658 24.7817C8.36839 25.1932 14.8946 26.2296 15.4123 26.5528C15.5897 26.6635 17.5183 30.0009 20.7303 30.7693C21.1907 30.3165 22.6445 27.964 23.0177 27.1997C23.2318 26.7613 23.3692 26.0822 23.5799 25.678C24.6199 25.7471 26.5629 28.5042 27.0237 29.191C27.4147 29.7738 27.8431 30.5269 28.2486 31.3298C28.6798 32.1832 28.9273 32.9969 29.3208 33.7839C30.4065 33.4696 32.471 31.5469 33.4856 31.5489C34.4791 32.8589 35.3178 34.8425 35.3961 36.7828C35.5266 40.0143 33.8949 41.4872 33.9293 42.4501L36.9541 42.5938C36.7717 43.9145 34.064 45.6475 33.9624 46.5434C38.8596 47.1655 39.6731 47.4797 43.6777 48.0724C46.4548 47.0487 46.3616 47.0355 48.5477 45.9251C49.6637 46.6339 51.9609 49.7579 52.7543 50.0787L55.8807 48.38C56.5018 48.0393 56.3415 48.0418 56.6894 47.641C57.075 47.4337 69.6169 47.4409 70.4065 38.0045C70.4896 37.0105 70.3 35.4809 70.4478 34.6788C71.3005 34.7019 73.4363 36.9028 74.4877 37.2115C74.7524 33.6389 72.8712 30.6934 70.3996 28.5543C69.4916 27.7685 69.5249 28.5773 69.1285 27.8837C69.5783 27.6266 70.4009 27.7868 71.0149 27.8092C71.4064 27.8234 72.7432 27.964 72.9441 27.7075C73.269 26.9597 71.2123 22.0666 70.7568 21.1888C65.8351 11.7031 56.9835 8.93953 56.595 8.19223C56.751 7.75904 58.4597 7.11492 58.9201 6.92557C58.5199 6.19812 56.5 5.12564 55.8108 4.76103C54.5344 4.08588 53.5691 3.6676 52.1489 3.12404C47.4423 1.32266 40.4444 1.29543 35.4117 2.57346C34.8377 2.71922 33.8067 3.06727 33.1798 3.08128C33.3 2.04387 34.9871 1.37092 35.3566 0.555109C25.9111 0.77859 24.8246 8.61141 12.9146 10.5486V10.5486ZM58.9431 47.9207C59.304 48.4342 60.23 48.7428 60.8522 48.9596C64.262 50.1482 68.7381 48.4761 68.9659 46.0978C69.0459 45.2622 68.8459 44.2578 68.2235 43.9495C67.7009 44.269 66.9964 44.9642 66.401 45.3597C65.7043 45.8227 64.9717 46.1699 64.1594 46.5079C61.9387 47.432 60.2439 47.4865 58.9431 47.9207V47.9207ZM30.8487 49.1939C30.4656 51.9557 34.96 53.5841 37.8279 53.5512C39.5568 53.5313 41.1274 53.3208 42.4903 52.4816C43.698 51.738 44.845 50.1823 43.6628 48.6394C40.3062 47.6521 40.3468 47.6938 34.0178 47.0099C32.9139 46.999 32.4314 48.0883 30.8487 49.1939Z" fill="#898989"/>
<path fill-rule="evenodd" clip-rule="evenodd" d="M44.0797 30.9113L44.6192 30.8074L44.6263 30.8063C44.6897 30.7964 44.7602 30.7892 44.8214 30.7691C45.0095 30.7072 45.1929 30.6757 45.3832 30.6289C45.8819 30.5059 46.4084 30.3242 46.8919 30.1488C47.0556 30.0894 47.2162 30.0208 47.3787 29.9581C47.8117 29.791 48.2485 29.5714 48.6578 29.3536C49.0729 29.1328 49.5032 28.8906 49.8897 28.6231L50.2251 28.3911C51.4534 27.5199 52.8334 26.205 53.6236 24.9209C54.114 24.1239 54.6621 23.2832 54.9661 22.3971C55.2713 21.5074 55.457 20.5945 55.3894 19.6521L55.2315 18.6212C55.0346 17.8337 54.5554 16.9868 54.0274 16.3688C52.9354 15.0905 51.2666 14.1932 49.6396 13.7984C49.1956 13.6906 48.7553 13.6534 48.3006 13.6278C47.8605 13.6029 47.4184 13.5861 46.9862 13.4924C46.1127 13.3032 45.4961 12.833 44.9628 12.1307C44.7262 11.8191 44.5453 11.4781 44.3185 11.1625C43.1624 9.55306 41.1543 8.18549 39.1735 7.8735C37.7983 7.65684 36.3796 7.87095 35.2048 8.64148C33.7613 9.58833 32.6989 10.9866 31.9807 12.5359C31.2789 14.0499 30.8036 15.5488 30.6783 17.2146C30.567 18.6947 30.627 20.0397 30.9183 21.4916C30.9951 21.8743 31.0758 22.2554 31.188 22.6296C31.2789 22.9325 31.382 23.2331 31.4773 23.5348C31.5833 23.8704 31.732 24.2152 31.8753 24.5368C32.0141 24.8482 32.1626 25.1662 32.328 25.4645C32.6519 26.049 33.0995 26.7863 33.6207 27.2166C34.2222 27.7133 34.9389 27.9918 35.6964 28.1531C35.9846 28.2145 36.2726 28.2561 36.5635 28.301C36.7712 28.333 37.0518 28.3705 37.2247 28.4937C37.5268 28.7089 37.7921 29.1735 38.0478 29.458C38.5739 30.0437 39.3291 30.6353 40.0772 30.9085C40.6767 31.1274 41.5956 31.1416 42.2299 31.1132C42.8705 31.0844 43.4483 31.0088 44.0796 30.9112L44.0797 30.9113ZM31.6108 12.3665C30.8256 14.0605 30.3941 15.5619 30.2721 17.1845C30.1462 18.8591 30.236 20.1609 30.519 21.5709C30.7347 22.6461 30.804 22.7541 31.0887 23.6561C31.2535 24.1781 31.6898 25.1522 31.9713 25.66C32.2821 26.2208 32.7753 27.045 33.3605 27.5281C34.8231 28.7359 36.6906 28.6113 36.9875 28.8228C37.1831 28.9622 37.5422 29.5031 37.744 29.7277C38.2908 30.3364 39.1021 30.9838 39.9368 31.2886C40.6149 31.5362 41.6314 31.5453 42.2483 31.5177C43.0074 31.4837 43.435 31.4208 44.1497 31.3102L44.6896 31.2062C44.7871 31.1909 44.8597 31.183 44.9494 31.1534C45.1465 31.0886 45.2924 31.0684 45.4813 31.0217C45.9079 30.9166 46.6093 30.6823 47.0316 30.529C47.1978 30.4688 47.3417 30.4066 47.5261 30.3355C48.2627 30.0514 49.4841 29.4028 50.1225 28.9554L50.4599 28.722C51.6958 27.8458 53.1452 26.4744 53.9712 25.1321C54.4853 24.2965 55.0423 23.4297 55.3518 22.5277C55.6959 21.5245 55.8666 20.5717 55.7946 19.6068L55.6315 18.5422C55.4352 17.7416 54.9462 16.8187 54.338 16.1067C53.1912 14.7643 51.4491 13.8207 49.7363 13.405C47.94 12.9691 46.6295 13.6532 45.288 11.8867C45.0429 11.5639 44.8816 11.2495 44.6501 10.9272C43.4279 9.22568 41.3226 7.80201 39.2374 7.47358C37.7732 7.24292 36.2497 7.47111 34.9806 8.30351C33.5833 9.22007 32.4275 10.6047 31.6109 12.3665L31.6108 12.3665Z" fill="#E31E24"/>
<path fill-rule="evenodd" clip-rule="evenodd" d="M49.6796 5.68149L49.0079 5.29609L48.6514 5.13C47.89 7.27061 47.451 9.43527 46.4512 11.9482C46.6225 11.9781 46.5726 11.9849 46.7336 12.0857C47.6693 10.3899 48.867 7.67124 49.6796 5.68149H49.6796Z" fill="#E31E24"/>
<path fill-rule="evenodd" clip-rule="evenodd" d="M54.6455 7.69326C54.4057 7.38927 53.1262 7.25937 52.8621 7.22947C51.9677 7.12832 51.0643 7.28683 50.2328 7.77852C49.3815 8.28198 48.4357 9.3687 48.1866 10.2037C48.6561 10.539 49.4657 10.6742 49.9083 10.7125C50.4598 10.7601 50.943 10.7338 51.6204 10.5273C52.7573 10.1808 54.1804 8.80176 54.6455 7.6933V7.69326Z" fill="#E31E24"/>
<path fill-rule="evenodd" clip-rule="evenodd" d="M13.7381 33.0977C12.8417 33.7915 13.3405 37.3393 14.2189 36.6116C15.0386 35.9326 14.7058 32.3486 13.7381 33.0977Z" fill="#FEFEFE"/>
</g>
<defs>
<clipPath id="clip0">
<rect width="75" height="54" fill="white"/>
</clipPath>
</defs>
</svg>
