<svg xmlns="http://www.w3.org/2000/svg" width="40" height="40" fill="none"><g clip-path="url(#clip0)"><path fill="#191515" fill-rule="evenodd" d="M31.33 40H8.67A8.65 8.65 0 010 31.33V8.67A8.65 8.65 0 018.67 0h22.66A8.65 8.65 0 0140 8.67v22.66A8.65 8.65 0 0131.33 40z" clip-rule="evenodd"/><path fill="#62D36E" d="M28.32 21.52a23.25 23.25 0 00-16.79-1.78c-.64.18-1.02 1.27-.84 1.9a1.2 1.2 0 001.47.85 20.87 20.87 0 0115.05 1.6c.18.09.37.13.56.13.43 0 .85-.67 1.07-1.08a1.2 1.2 0 00-.52-1.62zM20 35a15 15 0 110-30 15 15 0 010 30zm-2.36-22.09c-2.3 0-4.59.28-6.82.83-.74.19-1.19 1.08-1 1.81.18.74.92 1.19 1.66 1a25.7 25.7 0 0117.54 1.93c.2.1.4.14.62.14.5 0 .98-.42 1.23-.9a1.38 1.38 0 00-.62-1.85 28 28 0 00-12.6-2.96zm0 11.63c-1.84 0-3.68.28-5.45.82-.54.17-.85 1.32-.68 1.87a1.03 1.03 0 001.29.68 16.4 16.4 0 0112.73 1.29 1.02 1.02 0 001.4-.4c.27-.5.1-1.71-.4-1.99a18.5 18.5 0 00-8.89-2.27z"/></g><defs><clipPath id="clip0"><path fill="#fff" d="M0 0h40v40H0z"/></clipPath></defs></svg>