<svg xmlns="http://www.w3.org/2000/svg" width="40" height="40" fill="none"><path fill="#2787F5" d="M0 19.17C0 10.13 0 5.6 2.8 2.8 5.62 0 10.14 0 19.18 0h1.66C29.87 0 34.4 0 37.2 2.8 40 5.62 40 10.14 40 19.18v1.66c0 9.04 0 13.56-2.8 16.36C34.38 40 29.86 40 20.82 40h-1.66C10.13 40 5.6 40 2.8 37.2 0 34.38 0 29.86 0 20.82v-1.66z"/><path fill="#fff" fill-rule="evenodd" d="M10.83 12.5H7.92c-.84 0-1 .4-1 .82 0 .78.99 4.6 4.6 9.68 2.41 3.46 5.8 5.33 8.9 5.33 1.85 0 2.08-.41 2.08-1.13v-2.62c0-.83.18-1 .77-1 .43 0 1.17.22 2.9 1.89 1.98 1.98 2.3 2.86 3.42 2.86h2.92c.83 0 1.25-.41 1-1.24-.26-.82-1.2-2-2.45-3.41-.68-.8-1.7-1.67-2.01-2.1-.44-.56-.31-.8 0-1.3 0 0 3.55-5 3.92-6.7.19-.63 0-1.08-.88-1.08h-2.92c-.74 0-1.08.4-1.27.82 0 0-1.48 3.62-3.58 5.97-.68.68-1 .9-1.36.9-.19 0-.46-.22-.46-.84v-5.78c0-.74-.21-1.07-.83-1.07h-4.58c-.47 0-.75.34-.75.67 0 .7 1.05.87 1.16 2.84v4.3c0 .94-.17 1.11-.54 1.11-.99 0-3.4-3.63-4.82-7.79-.28-.8-.56-1.13-1.3-1.13z" clip-rule="evenodd"/></svg>