<svg width="50" height="50" viewBox="0 0 50 50" fill="none" xmlns="http://www.w3.org/2000/svg">
<path d="M24.9998 49.9996C38.8068 49.9996 49.9996 38.8068 49.9996 24.9998C49.9996 11.1928 38.8068 0 24.9998 0C11.1928 0 0 11.1928 0 24.9998C0 38.8068 11.1928 49.9996 24.9998 49.9996Z" fill="#43AC3C"/>
<path d="M18.4131 34.6194L18.826 34.8782C20.6865 36.0449 22.8217 36.6613 24.9994 36.6613C31.4298 36.6613 36.6605 31.4302 36.6605 24.9998C36.6605 18.5698 31.4298 13.3391 24.9994 13.3391C18.5698 13.3391 13.3387 18.5698 13.3387 24.9998C13.3387 27.6159 14.1957 30.0946 15.8156 32.1676L16.1016 32.534L15.5023 35.6225L18.4131 34.6198V34.6194ZM24.9994 38.6991C22.6018 38.6991 20.2496 38.0649 18.1667 36.8604L12.8295 38.6991L13.926 33.0468C12.2066 30.6902 11.3002 27.9175 11.3002 24.9994C11.3002 17.446 17.4456 11.3005 24.9991 11.3005C32.5536 11.3005 38.6987 17.4464 38.6987 24.9994C38.6987 32.5536 32.5533 38.6991 24.9991 38.6991H24.9994Z" fill="#FEFEFE"/>
<path d="M18.0842 19.7364C18.0842 19.7364 18.8874 18.3314 19.5427 18.2511C20.1983 18.1707 21.0419 18.1707 21.269 18.5989C21.4966 19.027 22.5135 21.5162 22.5135 21.5162C22.5135 21.5162 22.6872 21.9444 22.4197 22.3594C22.1522 22.7745 21.5503 23.3763 21.5503 23.3763C21.5503 23.3763 21.216 23.8048 21.5503 24.2595C21.8851 24.7145 22.4037 25.5512 23.4777 26.6237C24.5495 27.6969 26.6088 28.4616 26.6088 28.4616C26.6088 28.4616 26.9031 28.5016 27.0907 28.3144C27.2782 28.1269 28.2951 26.8552 28.2951 26.8552C28.2951 26.8552 28.6222 26.434 29.1652 26.6818C29.7067 26.9294 32.055 28.0996 32.055 28.0996C32.055 28.0996 32.3297 28.2003 32.3297 28.6146C32.3297 29.0297 32.1614 30.0444 31.8184 30.3875C31.4756 30.731 30.4714 31.789 28.9642 31.789C27.4563 31.789 23.8651 30.5623 21.952 28.6484C20.0381 26.7345 18.3386 24.7941 17.9374 23.0282C17.5361 21.2615 17.5892 20.4633 18.0846 19.7361L18.0842 19.7364Z" fill="#FEFEFE"/>
</svg>
